<svg width="13" height="13" viewBox="0 0 13 13" fill="none" xmlns="http://www.w3.org/2000/svg">
<path d="M2.59863 7.26439C2.59864 5.84378 3.75029 4.69212 5.1709 4.69212H5.98007V6.5331H6.98345C7.97651 6.5331 8.78156 5.72805 8.78156 4.73499C8.78156 3.74193 7.97651 2.93688 6.98345 2.93688H5.98007V4.37392H5.51557C5.34455 4.37392 5.20591 4.23527 5.20591 4.06425V2.16272H6.98345C8.40407 2.16272 9.55572 3.31437 9.55572 4.73499C9.55572 6.15561 8.40407 7.30726 6.98345 7.30726H5.20591V5.46628H5.1709C4.17784 5.46628 3.3728 6.27133 3.37279 7.26439C3.37279 8.25746 4.17784 9.0625 5.1709 9.0625H6.39777V7.93505C6.39777 7.76403 6.53641 7.62539 6.70743 7.62539H7.17193V9.83666H5.1709C3.75028 9.83666 2.59863 8.68501 2.59863 7.26439Z" fill="black"/>
<circle cx="6.03845" cy="6.03845" r="5.65137" stroke="black" stroke-width="0.774161"/>
</svg>
