<svg width="156" height="156" viewBox="0 0 156 156" fill="none" xmlns="http://www.w3.org/2000/svg">
<path d="M33.5667 93.8365C33.5667 75.4861 48.4428 60.61 66.7932 60.61H77.2454V84.3903H90.2063C103.034 84.3903 113.433 73.9913 113.433 61.1637C113.433 48.3361 103.034 37.9371 90.2063 37.9371H77.2454V56.4996H71.2454C69.0362 56.4996 67.2454 54.7088 67.2454 52.4996V27.9371H90.2063C108.557 27.9371 123.433 42.8132 123.433 61.1637C123.433 79.5141 108.557 94.3903 90.2063 94.3903H67.2454V70.61H66.7932C53.9656 70.61 43.5667 81.009 43.5667 93.8365C43.5667 106.664 53.9656 117.063 66.7932 117.063H82.6409V102.5C82.6409 100.29 84.4317 98.4996 86.6409 98.4996H92.6409V127.063H66.7932C48.4428 127.063 33.5667 112.187 33.5667 93.8365Z" fill="black"/>
<circle cx="78" cy="78" r="73" stroke="black" stroke-width="10"/>
</svg>
