<svg width="518" height="62" viewBox="0 0 518 62" fill="none" xmlns="http://www.w3.org/2000/svg">
<path d="M43.296 36.8V55.52C40.9493 57.248 38.4427 58.5173 35.776 59.328C33.1307 60.1173 30.2933 60.512 27.264 60.512C23.488 60.512 20.064 59.9253 16.992 58.752C13.9413 57.5787 11.328 55.9467 9.152 53.856C6.99733 51.7653 5.33333 49.2693 4.16 46.368C2.98667 43.4667 2.4 40.2987 2.4 36.864C2.4 33.3867 2.96533 30.1973 4.096 27.296C5.22667 24.3947 6.82667 21.8987 8.896 19.808C10.9867 17.7173 13.5147 16.096 16.48 14.944C19.4453 13.792 22.7733 13.216 26.464 13.216C28.3413 13.216 30.0907 13.3653 31.712 13.664C33.3547 13.9627 34.8693 14.3787 36.256 14.912C37.664 15.424 38.944 16.0533 40.096 16.8C41.248 17.5467 42.304 18.368 43.264 19.264L40.8 23.168C40.416 23.7867 39.9147 24.1707 39.296 24.32C38.6773 24.448 38.0053 24.288 37.28 23.84C36.576 23.4347 35.872 23.0293 35.168 22.624C34.464 22.2187 33.6747 21.8667 32.8 21.568C31.9467 21.2693 30.976 21.024 29.888 20.832C28.8213 20.64 27.584 20.544 26.176 20.544C23.8933 20.544 21.824 20.928 19.968 21.696C18.1333 22.464 16.5653 23.5627 15.264 24.992C13.9627 26.4213 12.96 28.1387 12.256 30.144C11.552 32.1493 11.2 34.3893 11.2 36.864C11.2 39.5093 11.5733 41.8773 12.32 43.968C13.088 46.0373 14.1547 47.7973 15.52 49.248C16.9067 50.6773 18.5707 51.776 20.512 52.544C22.4533 53.2907 24.6187 53.664 27.008 53.664C28.7147 53.664 30.24 53.4827 31.584 53.12C32.928 52.7573 34.24 52.2667 35.52 51.648V43.264H29.696C29.1413 43.264 28.704 43.1147 28.384 42.816C28.0853 42.496 27.936 42.112 27.936 41.664V36.8H43.296ZM73.683 42.528L68.051 27.136C67.7737 26.4533 67.4857 25.6427 67.187 24.704C66.8883 23.7653 66.5897 22.752 66.291 21.664C66.0137 22.752 65.7257 23.776 65.427 24.736C65.1283 25.6747 64.8403 26.496 64.563 27.2L58.963 42.528H73.683ZM88.883 60H82.227C81.4803 60 80.8723 59.8187 80.403 59.456C79.9337 59.072 79.5817 58.6027 79.347 58.048L75.891 48.608H56.723L53.267 58.048C53.0963 58.5387 52.7657 58.9867 52.275 59.392C51.7843 59.7973 51.1763 60 50.451 60H43.731L61.939 13.728H70.707L88.883 60ZM118.985 52.896V60H91.8805V13.728H100.489V52.896H118.985ZM150.443 52.896V60H123.339V13.728H131.947V52.896H150.443ZM163.437 20.576V33.408H179.629V40.032H163.437V53.12H183.981V60H154.797V13.728H183.981V20.576H163.437ZM203.801 35.744C205.422 35.744 206.83 35.5413 208.025 35.136C209.241 34.7307 210.233 34.176 211.001 33.472C211.79 32.7467 212.377 31.8933 212.761 30.912C213.145 29.9307 213.337 28.8533 213.337 27.68C213.337 25.3333 212.558 23.5307 211.001 22.272C209.465 21.0133 207.108 20.384 203.929 20.384H198.425V35.744H203.801ZM225.945 60H218.169C216.697 60 215.63 59.424 214.969 58.272L205.241 43.456C204.878 42.9013 204.473 42.5067 204.025 42.272C203.598 42.0373 202.958 41.92 202.105 41.92H198.425V60H189.817V13.728H203.929C207.065 13.728 209.753 14.0587 211.993 14.72C214.254 15.36 216.1 16.2667 217.529 17.44C218.98 18.6133 220.046 20.0213 220.729 21.664C221.412 23.2853 221.753 25.0773 221.753 27.04C221.753 28.5973 221.518 30.0693 221.049 31.456C220.601 32.8427 219.94 34.1013 219.065 35.232C218.212 36.3627 217.145 37.3547 215.865 38.208C214.606 39.0613 213.166 39.7333 211.545 40.224C212.1 40.544 212.612 40.928 213.081 41.376C213.55 41.8027 213.977 42.3147 214.361 42.912L225.945 60ZM246.897 42.08V60H238.321V42.08L221.457 13.728H229.041C229.788 13.728 230.374 13.9093 230.801 14.272C231.249 14.6347 231.622 15.0933 231.921 15.648L240.369 31.104C240.86 32.0213 241.286 32.8853 241.649 33.696C242.033 34.5067 242.374 35.3173 242.673 36.128C242.95 35.3173 243.27 34.5067 243.633 33.696C243.996 32.8853 244.412 32.0213 244.881 31.104L253.297 15.648C253.532 15.1787 253.884 14.7413 254.353 14.336C254.822 13.9307 255.42 13.728 256.145 13.728H263.761L246.897 42.08ZM318.967 36.864C318.967 40.256 318.401 43.3707 317.271 46.208C316.14 49.0453 314.551 51.488 312.503 53.536C310.455 55.584 307.991 57.1733 305.111 58.304C302.231 59.4347 299.031 60 295.511 60H277.879V13.728H295.511C299.031 13.728 302.231 14.304 305.111 15.456C307.991 16.5867 310.455 18.176 312.503 20.224C314.551 22.2507 316.14 24.6827 317.271 27.52C318.401 30.3573 318.967 33.472 318.967 36.864ZM310.135 36.864C310.135 34.3253 309.793 32.0533 309.111 30.048C308.449 28.0213 307.479 26.3147 306.199 24.928C304.94 23.52 303.404 22.4427 301.591 21.696C299.799 20.9493 297.772 20.576 295.511 20.576H286.519V53.152H295.511C297.772 53.152 299.799 52.7787 301.591 52.032C303.404 51.2853 304.94 50.2187 306.199 48.832C307.479 47.424 308.449 45.7173 309.111 43.712C309.793 41.6853 310.135 39.4027 310.135 36.864ZM333.414 20.576V33.408H349.606V40.032H333.414V53.12H353.958V60H324.774V13.728H353.958V20.576H333.414ZM384.434 22.144C384.178 22.592 383.901 22.9227 383.602 23.136C383.325 23.328 382.973 23.424 382.546 23.424C382.098 23.424 381.608 23.264 381.074 22.944C380.562 22.6027 379.944 22.2293 379.218 21.824C378.493 21.4187 377.64 21.056 376.658 20.736C375.698 20.3947 374.557 20.224 373.234 20.224C372.04 20.224 370.994 20.3733 370.098 20.672C369.202 20.9493 368.445 21.344 367.826 21.856C367.229 22.368 366.781 22.9867 366.482 23.712C366.184 24.416 366.034 25.1947 366.034 26.048C366.034 27.136 366.333 28.0427 366.93 28.768C367.549 29.4933 368.36 30.112 369.362 30.624C370.365 31.136 371.506 31.5947 372.786 32C374.066 32.4053 375.378 32.8427 376.722 33.312C378.066 33.76 379.378 34.2933 380.658 34.912C381.938 35.5093 383.08 36.2773 384.082 37.216C385.085 38.1333 385.885 39.264 386.482 40.608C387.101 41.952 387.41 43.584 387.41 45.504C387.41 47.5947 387.048 49.5573 386.322 51.392C385.618 53.2053 384.573 54.7947 383.186 56.16C381.821 57.504 380.146 58.5707 378.162 59.36C376.178 60.128 373.906 60.512 371.346 60.512C369.874 60.512 368.424 60.3627 366.994 60.064C365.565 59.7867 364.189 59.3813 362.866 58.848C361.565 58.3147 360.338 57.6747 359.186 56.928C358.034 56.1813 357.01 55.3493 356.114 54.432L358.642 50.304C358.856 50.0053 359.133 49.76 359.474 49.568C359.816 49.3547 360.178 49.248 360.562 49.248C361.096 49.248 361.672 49.472 362.29 49.92C362.909 50.3467 363.645 50.8267 364.498 51.36C365.352 51.8933 366.344 52.384 367.474 52.832C368.626 53.2587 370.002 53.472 371.602 53.472C374.056 53.472 375.954 52.896 377.298 51.744C378.642 50.5707 379.314 48.896 379.314 46.72C379.314 45.504 379.005 44.512 378.386 43.744C377.789 42.976 376.989 42.336 375.986 41.824C374.984 41.2907 373.842 40.8427 372.562 40.48C371.282 40.1173 369.981 39.7227 368.658 39.296C367.336 38.8693 366.034 38.3573 364.754 37.76C363.474 37.1627 362.333 36.384 361.33 35.424C360.328 34.464 359.517 33.2693 358.898 31.84C358.301 30.3893 358.002 28.608 358.002 26.496C358.002 24.8107 358.333 23.168 358.994 21.568C359.677 19.968 360.658 18.5493 361.938 17.312C363.218 16.0747 364.797 15.0827 366.674 14.336C368.552 13.5893 370.706 13.216 373.138 13.216C375.869 13.216 378.386 13.6427 380.69 14.496C382.994 15.3493 384.957 16.544 386.578 18.08L384.434 22.144ZM401.767 60H393.127V13.728H401.767V60ZM448.48 36.8V55.52C446.133 57.248 443.626 58.5173 440.96 59.328C438.314 60.1173 435.477 60.512 432.448 60.512C428.672 60.512 425.248 59.9253 422.176 58.752C419.125 57.5787 416.512 55.9467 414.336 53.856C412.181 51.7653 410.517 49.2693 409.344 46.368C408.17 43.4667 407.584 40.2987 407.584 36.864C407.584 33.3867 408.149 30.1973 409.28 27.296C410.41 24.3947 412.01 21.8987 414.08 19.808C416.17 17.7173 418.698 16.096 421.664 14.944C424.629 13.792 427.957 13.216 431.648 13.216C433.525 13.216 435.274 13.3653 436.896 13.664C438.538 13.9627 440.053 14.3787 441.44 14.912C442.848 15.424 444.128 16.0533 445.28 16.8C446.432 17.5467 447.488 18.368 448.448 19.264L445.984 23.168C445.6 23.7867 445.098 24.1707 444.48 24.32C443.861 24.448 443.189 24.288 442.464 23.84C441.76 23.4347 441.056 23.0293 440.352 22.624C439.648 22.2187 438.858 21.8667 437.984 21.568C437.13 21.2693 436.16 21.024 435.072 20.832C434.005 20.64 432.768 20.544 431.36 20.544C429.077 20.544 427.008 20.928 425.152 21.696C423.317 22.464 421.749 23.5627 420.448 24.992C419.146 26.4213 418.144 28.1387 417.44 30.144C416.736 32.1493 416.384 34.3893 416.384 36.864C416.384 39.5093 416.757 41.8773 417.504 43.968C418.272 46.0373 419.338 47.7973 420.704 49.248C422.09 50.6773 423.754 51.776 425.696 52.544C427.637 53.2907 429.802 53.664 432.192 53.664C433.898 53.664 435.424 53.4827 436.768 53.12C438.112 52.7573 439.424 52.2667 440.704 51.648V43.264H434.88C434.325 43.264 433.888 43.1147 433.568 42.816C433.269 42.496 433.12 42.112 433.12 41.664V36.8H448.48ZM493.989 13.728V60H489.573C488.89 60 488.314 59.8933 487.845 59.68C487.397 59.4453 486.96 59.0613 486.533 58.528L462.373 27.68C462.501 29.088 462.565 30.3893 462.565 31.584V60H454.981V13.728H459.493C459.856 13.728 460.165 13.7493 460.421 13.792C460.698 13.8133 460.933 13.8773 461.125 13.984C461.338 14.0693 461.541 14.208 461.733 14.4C461.925 14.5707 462.138 14.8053 462.373 15.104L486.629 46.08C486.565 45.3333 486.512 44.5973 486.469 43.872C486.426 43.1467 486.405 42.4747 486.405 41.856V13.728H493.989Z" fill="black"/>
<path d="M502.976 13.022V14H498.098V5.402H499.256V13.022H502.976ZM508.615 6.38H505.831V14H504.673V6.38H501.883V5.402H508.615V6.38ZM517.007 9.704C517.007 10.348 516.905 10.934 516.701 11.462C516.497 11.99 516.209 12.442 515.837 12.818C515.465 13.194 515.017 13.486 514.493 13.694C513.973 13.898 513.397 14 512.765 14H509.555V5.402H512.765C513.397 5.402 513.973 5.506 514.493 5.714C515.017 5.918 515.465 6.21 515.837 6.59C516.209 6.966 516.497 7.418 516.701 7.946C516.905 8.474 517.007 9.06 517.007 9.704ZM515.813 9.704C515.813 9.176 515.741 8.704 515.597 8.288C515.453 7.872 515.249 7.52 514.985 7.232C514.721 6.944 514.401 6.724 514.025 6.572C513.649 6.42 513.229 6.344 512.765 6.344H510.719V13.058H512.765C513.229 13.058 513.649 12.982 514.025 12.83C514.401 12.678 514.721 12.46 514.985 12.176C515.249 11.888 515.453 11.536 515.597 11.12C515.741 10.704 515.813 10.232 515.813 9.704Z" fill="black"/>
</svg>
